[h264 @ 0x55c498e5b0c0] Reinit context to 1920x1088, pix_fmt: yuv420p
Input #0, mov,mp4,m4a,3gp,3g2,mj2, from '/var/www/html/project/media/video/original/VVF_22_luglio_2024.mp4':
  Metadata:
    major_brand     : mp42
    minor_version   : 0
    compatible_brands: mp42mp41
    creation_time   : 2024-07-22T17:46:58.000000Z
  Duration: 00:00:41.26, start: 0.000000, bitrate: 20109 kb/s
    Stream #0:0(eng): Video: h264 (High), 1 reference frame (avc1 / 0x31637661), yuv420p(left), 1920x1080 (1920x1088) [SAR 1:1 DAR 16:9], 19798 kb/s, 30 fps, 30 tbr, 30k tbn, 60 tbc (default)
    Metadata:
      creation_time   : 2024-07-22T17:46:58.000000Z
      handler_name    : ?Mainconcept Video Media Handler
      encoder         : AVC Coding
    Stream #0:1(eng): Audio: aac (LC) (mp4a / 0x6134706D), 48000 Hz, stereo, fltp, 317 kb/s (default)
    Metadata:
      creation_time   : 2024-07-22T17:46:58.000000Z
      handler_name    : #Mainconcept MP4 Sound Media Handler
Input #1, png_pipe, from '/var/www/html/project/static/images/templates/logo.png':
  Duration: N/A, bitrate: N/A
    Stream #1:0: Video: png, 1 reference frame, rgba(pc), 1920x1080 [SAR 2835:2835 DAR 16:9], 25 tbr, 25 tbn, 25 tbc
[h264 @ 0x55c498ebc4c0] Reinit context to 1280x720, pix_fmt: yuv420p
Input #2, mov,mp4,m4a,3gp,3g2,mj2, from '/var/www/html/project/static/images/templates/Codino.mp4':
  Metadata:
    major_brand     : mp42
    minor_version   : 1
    compatible_brands: isommp41mp42
    creation_time   : 2021-07-11T07:02:58.000000Z
  Duration: 00:00:02.00, start: 0.000000, bitrate: 1007 kb/s
    Stream #2:0(ita): Audio: aac (LC) (mp4a / 0x6134706D), 44100 Hz, stereo, fltp, 102 kb/s (default)
    Metadata:
      creation_time   : 2021-07-11T07:02:58.000000Z
      handler_name    : Core Media Audio
    Stream #2:1(und): Video: h264 (High), 1 reference frame (avc1 / 0x31637661), yuv420p(tv, bt709, progressive, left), 1280x720 [SAR 1:1 DAR 16:9], 813 kb/s, 25 fps, 25 tbr, 25k tbn, 50k tbc (default)
    Metadata:
      creation_time   : 2021-07-11T07:02:58.000000Z
      handler_name    : Core Media Video
[Parsed_scale_0 @ 0x55c498f95e00] w:1920 h:1080 flags:'bilinear' interl:0
[Parsed_scale_2 @ 0x55c498f7fc40] w:1920 h:1080 flags:'bilinear' interl:0
[Parsed_scale_4 @ 0x55c498f7de80] w:1920 h:1080 flags:'bilinear' interl:0
Stream mapping:
  Stream #0:0 (h264) -> scale
  Stream #0:1 (aac) -> concat:in0:a0
  Stream #1:0 (png) -> scale
  Stream #2:0 (aac) -> concat:in1:a0
  Stream #2:1 (h264) -> scale
  concat:out:v0 -> Stream #0:0 (libx264)
  concat:out:a0 -> Stream #0:1 (aac)
Press [q] to stop, [?] for help
[h264 @ 0x55c498f651c0] Reinit context to 1920x1088, pix_fmt: yuv420p
[h264 @ 0x55c499396a40] Reinit context to 1280x720, pix_fmt: yuv420p
[Parsed_scale_0 @ 0x55c49a83c280] w:1920 h:1080 flags:'bilinear' interl:0
[Parsed_scale_2 @ 0x55c49a844280] w:1920 h:1080 flags:'bilinear' interl:0
[Parsed_scale_4 @ 0x55c49a845cc0] w:1920 h:1080 flags:'bilinear' interl:0
[graph 0 input from stream 0:0 @ 0x55c49a84a400] w:1920 h:1080 pixfmt:yuv420p tb:1/30000 fr:30/1 sar:1/1 sws_param:flags=2
[graph 0 input from stream 1:0 @ 0x55c49a84b480] w:1920 h:1080 pixfmt:rgba tb:1/25 fr:25/1 sar:2835/2835 sws_param:flags=2
[graph 0 input from stream 2:1 @ 0x55c49a84c500] w:1280 h:720 pixfmt:yuv420p tb:1/25000 fr:25/1 sar:1/1 sws_param:flags=2
[graph_0_in_0_1 @ 0x55c49a84d4c0] tb:1/48000 samplefmt:fltp samplerate:48000 chlayout:0x3
[graph_0_in_2_0 @ 0x55c49a84e600] tb:1/44100 samplefmt:fltp samplerate:44100 chlayout:0x3
[Parsed_concat_7 @ 0x55c49a848480] auto-inserting filter 'auto_resampler_0' between the filter 'graph_0_in_2_0' and the filter 'Parsed_concat_7'
[Parsed_scale_0 @ 0x55c49a83c280] w:1920 h:1080 fmt:yuv420p sar:1/1 -> w:1920 h:1080 fmt:yuv420p sar:1/1 flags:0x2
[Parsed_setsar_1 @ 0x55c49a844400] w:1920 h:1080 sar:1/1 dar:16/9 -> sar:1/1 dar:16/9
[Parsed_scale_2 @ 0x55c49a844280] w:1920 h:1080 fmt:rgba sar:2835/2835 -> w:1920 h:1080 fmt:yuva420p sar:1/1 flags:0x2
[Parsed_setsar_3 @ 0x55c49a845040] w:1920 h:1080 sar:1/1 dar:16/9 -> sar:1/1 dar:16/9
[Parsed_overlay_6 @ 0x55c49a847340] main w:1920 h:1080 fmt:yuv420p overlay w:1920 h:1080 fmt:yuva420p
[Parsed_overlay_6 @ 0x55c49a847340] [framesync @ 0x55c49a847468] Selected 1/30000 time base
[Parsed_overlay_6 @ 0x55c49a847340] [framesync @ 0x55c49a847468] Sync level 2
[Parsed_scale_4 @ 0x55c49a845cc0] w:1280 h:720 fmt:yuv420p sar:1/1 -> w:1920 h:1080 fmt:yuv420p sar:1/1 flags:0x2
[Parsed_setsar_5 @ 0x55c49a846780] w:1920 h:1080 sar:1/1 dar:16/9 -> sar:1/1 dar:16/9
[auto_resampler_0 @ 0x55c49a856840] ch:2 chl:stereo fmt:fltp r:44100Hz -> ch:2 chl:stereo fmt:fltp r:48000Hz
[libx264 @ 0x55c498ea8200] using SAR=1/1
[libx264 @ 0x55c498ea8200] using cpu capabilities: MMX2 SSE2Fast SSSE3 SSE4.2 AVX FMA3 BMI2 AVX2
[libx264 @ 0x55c498ea8200] profile High, level 4.0
[libx264 @ 0x55c498ea8200] 264 - core 155 r2917 0a84d98 - H.264/MPEG-4 AVC codec - Copyleft 2003-2018 - http://www.videolan.org/x264.html - options: cabac=1 ref=1 deblock=1:0:0 analyse=0x3:0x113 me=hex subme=2 psy=1 psy_rd=1.00:0.00 mixed_ref=0 me_range=16 chroma_me=1 trellis=0 8x8dct=1 cqm=0 deadzone=21,11 fast_pskip=1 chroma_qp_offset=0 threads=24 lookahead_threads=8 sliced_threads=0 nr=0 decimate=1 interlaced=0 bluray_compat=0 constrained_intra=0 bframes=3 b_pyramid=2 b_adapt=1 b_bias=0 direct=1 weightb=1 open_gop=0 weightp=1 keyint=250 keyint_min=25 scenecut=40 intra_refresh=0 rc_lookahead=10 rc=crf mbtree=1 crf=18.0 qcomp=0.60 qpmin=0 qpmax=69 qpstep=4 ip_ratio=1.40 aq=1:1.00
Output #0, mp4, to '/var/www/html/project/media/video/watermarks/VVF_22_luglio_2024.mp4':
  Metadata:
    major_brand     : mp42
    minor_version   : 0
    compatible_brands: mp42mp41
    encoder         : Lavf58.29.100
    Stream #0:0: Video: h264 (libx264), 1 reference frame (avc1 / 0x31637661), yuv420p(progressive), 1920x1080 [SAR 1:1 DAR 16:9], q=-1--1, 30 fps, 15360 tbn, 30 tbc (default)
    Metadata:
      encoder         : Lavc58.54.100 libx264
    Side data:
      cpb: bitrate max/min/avg: 0/0/0 buffer size: 0 vbv_delay: -1
    Stream #0:1: Audio: aac (LC) (mp4a / 0x6134706D), 48000 Hz, stereo, fltp, delay 1024, 128 kb/s (default)
    Metadata:
      encoder         : Lavc58.54.100 aac
[Parsed_overlay_6 @ 0x55c49a847340] [framesync @ 0x55c49a847468] Sync level 0
[Parsed_concat_7 @ 0x55c49a848480] EOF on in0:v0, 1 streams left in segment.
[Parsed_concat_7 @ 0x55c49a848480] EOF on in0:a0, 0 streams left in segment.
[Parsed_concat_7 @ 0x55c49a848480] Segment finished at pts=41237333
[Parsed_concat_7 @ 0x55c49a848480] EOF on in1:v0, 1 streams left in segment.
[Parsed_concat_7 @ 0x55c49a848480] EOF on in1:a0, 0 streams left in segment.
[Parsed_concat_7 @ 0x55c49a848480] Segment finished at pts=43256020
No more output streams to write to, finishing.
frame= 1287 fps= 49 q=-1.0 Lsize=   47077kB time=00:00:43.26 bitrate=8914.0kbits/s speed=1.65x    
[AVIOContext @ 0x55c498e59440] Statistics: 0 seeks, 51 writeouts
video:46366kB audio:663kB subtitle:0kB other streams:0kB global headers:0kB muxing overhead: 0.100963%
Input file #0 (/var/www/html/project/media/video/original/VVF_22_luglio_2024.mp4):
  Input stream #0:0 (video): 1237 packets read (102042687 bytes); 1237 frames decoded; 
  Input stream #0:1 (audio): 1933 packets read (1635283 bytes); 1933 frames decoded (1979392 samples); 
  Total: 3170 packets (103677970 bytes) demuxed
Input file #1 (/var/www/html/project/static/images/templates/logo.png):
  Input stream #1:0 (video): 1 packets read (111578 bytes); 1 frames decoded; 
  Total: 1 packets (111578 bytes) demuxed
Input file #2 (/var/www/html/project/static/images/templates/Codino.mp4):
  Input stream #2:0 (audio): 89 packets read (26579 bytes); 87 frames decoded (89024 samples); 
  Input stream #2:1 (video): 50 packets read (203365 bytes); 50 frames decoded; 
  Total: 139 packets (229944 bytes) demuxed
Output file #0 (/var/www/html/project/media/video/watermarks/VVF_22_luglio_2024.mp4):
  Output stream #0:0 (video): 1287 frames encoded; 1287 packets muxed (47479244 bytes); 
  Output stream #0:1 (audio): 2028 frames encoded (2076289 samples); 2029 packets muxed (679006 bytes); 
  Total: 3316 packets (48158250 bytes) muxed
[AVIOContext @ 0x55c498f66000] Statistics: 2 seeks, 187 writeouts
[libx264 @ 0x55c498ea8200] frame I:6     Avg QP:14.52  size:315350
[libx264 @ 0x55c498ea8200] frame P:360   Avg QP:18.09  size: 83438
[libx264 @ 0x55c498ea8200] frame B:921   Avg QP:22.40  size: 16882
[libx264 @ 0x55c498ea8200] consecutive B-frames:  3.5%  2.3%  2.8% 91.4%
[libx264 @ 0x55c498ea8200] mb I  I16..4: 26.6% 15.5% 57.8%
[libx264 @ 0x55c498ea8200] mb P  I16..4:  5.3%  4.3%  1.5%  P16..4: 37.4% 10.9%  9.9%  0.0%  0.0%    skip:30.7%
[libx264 @ 0x55c498ea8200] mb B  I16..4:  0.9%  0.6%  0.1%  B16..8: 14.1%  4.9%  1.4%  direct:10.7%  skip:67.4%  L0:32.5% L1:38.2% BI:29.3%
[libx264 @ 0x55c498ea8200] 8x8 transform intra:36.0% inter:32.0%
[libx264 @ 0x55c498ea8200] coded y,uvDC,uvAC intra: 42.2% 40.7% 16.9% inter: 17.0% 10.0% 1.0%
[libx264 @ 0x55c498ea8200] i16 v,h,dc,p: 55% 30%  8%  7%
[libx264 @ 0x55c498ea8200] i8 v,h,dc,ddl,ddr,vr,hd,vl,hu: 21% 36% 28%  2%  2%  2%  3%  2%  4%
[libx264 @ 0x55c498ea8200] i4 v,h,dc,ddl,ddr,vr,hd,vl,hu: 32% 27% 11%  4%  5%  4%  6%  4%  6%
[libx264 @ 0x55c498ea8200] i8c dc,h,v,p: 56% 25% 16%  4%
[libx264 @ 0x55c498ea8200] Weighted P-Frames: Y:12.5% UV:7.8%
[libx264 @ 0x55c498ea8200] kb/s:8785.55
[aac @ 0x55c498ea6340] Qavg: 2106.779
[AVIOContext @ 0x55c498e623c0] Statistics: 103710295 bytes read, 0 seeks
[AVIOContext @ 0x55c498fa7400] Statistics: 111578 bytes read, 0 seeks
[AVIOContext @ 0x55c498f46fc0] Statistics: 1530915 bytes read, 42 seeks
